# xmcd
#
# Track frame offsets:
#	150
#	42604
#	73600
#	123707
#	128687
#	179777
#	214643
#	221313
#	237392
#	253037
#	268833
#	308619
#
# Disc length: 4338 seconds
#
# Revision: 1
# Processed by: cddbd v1.5.2PL0 Copyright (c) Steve Scherf et al.
# Submitted via: audiograbber 1.83.01
#
DISCID=bc10f00c
DTITLE=Billy Joel - Fantasies and Delusions
DYEAR=2001
DGENRE=Classical
TTITLE0=Opus 3. Reverie (Villa D'Este)
TTITLE1=Opus 2. Waltz #1 (Nunley's Carousel)
TTITLE2=Opus 7. Aria (Grand Canal)
TTITLE3=Opus 6.  Invention in C Minor
TTITLE4=Opus 1. Soliloquy (On a Separation)
TTITLE5=Opus 8. Suite For Piano-I Innamorato
TTITLE6=Opus 8. Suite for Piano-II. Sorbetto
TTITLE7=Opus 8. Suite for Piano-III. Delusion
TTITLE8=Opus 5. Waltz #2 (Steinway Hall)
TTITLE9=Opus 9.  Waltz #3  (For Lola)
TTITLE10=Opus 4. Fantasy (Film Noir)
TTITLE11=Air (Dublinesque)
EXTD=
EXTT0=
EXTT1=
EXTT2=
EXTT3=
EXTT4=
EXTT5=
EXTT6=
EXTT7=
EXTT8=
EXTT9=
EXTT10=
EXTT11=
PLAYORDER=
